<svg width="249" height="143" viewBox="0 0 249 143" fill="none" xmlns="http://www.w3.org/2000/svg">
<rect width="249" height="143" fill="#F5F5F5"/>
<path d="M176 2C198.562 41.2238 217.77 82.5397 238 123C240.842 128.685 244.239 134.571 246.556 140.556C247.164 142.127 243.065 133.146 243 133" stroke="black" stroke-width="3" stroke-linecap="round"/>
<path d="M173 6C170.271 10.7757 163.024 14.5113 158.778 17.6111C147.994 25.4836 136.635 32.3797 125.389 39.5556C101.535 54.7769 75.2371 64.7509 49.7778 76.8333C39.9435 81.5004 30.4108 85.7003 22.6111 93.5C21.8306 94.2805 21.5576 95.5803 20.9444 96.5C18.4459 100.248 10.7485 102.515 7 104.778C5.45908 105.708 0.870161 107.888 2.66667 108C9.43463 108.423 16.1184 108.435 22.8889 109.222C38.3093 111.015 53.8113 111.844 69.2222 113.667C93.9608 116.593 118.065 122.003 142.556 126.333C172.159 131.567 203.897 136.58 234.111 137C237.213 137.043 239.933 138 243 138" stroke="black" stroke-width="3" stroke-linecap="round"/>
</svg>
